<?xml version="1.0" encoding="utf-8"?>
<!-- Generator: Adobe Illustrator 24.0.1, SVG Export Plug-In . SVG Version: 6.00 Build 0)  -->
<svg version="1.1" id="logo_xA0_Image_1_" xmlns="http://www.w3.org/2000/svg" xmlns:xlink="http://www.w3.org/1999/xlink" x="0px"
	 y="0px" viewBox="0 0 162.55 104.7" style="enable-background:new 0 0 162.55 104.7;" xml:space="preserve">
<style type="text/css">
	.st0{fill:#FFFFFF;}
	.st1{fill:#DB0032;}
</style>
<g>
	<g>
		<path class="st0" d="M101.42,32.76c0-10.81,0-21.62,0-32.57c4.62,0,9.15,0,13.8,0c0,25.24,0,50.52,0,75.95
			c-0.37,0.04-0.8,0.12-1.24,0.13c-3.98,0.01-7.96-0.03-11.93,0.03c-1.07,0.02-1.43-0.34-1.69-1.41c-2.46-10.08-5-20.14-7.52-30.21
			c-0.12-0.48-0.31-0.94-0.76-1.37c0,10.91,0,21.82,0,32.84c-4.7,0-9.22,0-13.91,0c0-25.29,0-50.61,0-76.03c4.59,0,9.13,0,13.89,0
			c2.96,10.85,5.94,21.77,8.92,32.68C101.13,32.8,101.28,32.78,101.42,32.76z"/>
		<path class="st0" d="M139.13,27.88c0.74-2.95,1.47-5.89,2.21-8.84c1.46-5.85,2.9-11.71,4.42-17.55c0.14-0.54,0.74-1.37,1.14-1.38
			c4.89-0.1,9.78-0.06,14.82-0.06c-1.89,6.85-3.72,13.5-5.56,20.14c-1.21,4.36-2.46,8.7-3.63,13.07c-0.2,0.75-0.21,1.64-0.02,2.4
			c3.22,13,6.49,25.99,9.74,38.98c0.12,0.49,0.18,0.99,0.29,1.58c-5.73,0-11.31,0-17.12,0c-2.11-10.22-4.22-20.46-6.33-30.7
			c-0.11,0-0.21,0.01-0.32,0.01c0,10.17,0,20.35,0,30.64c-5.68,0-11.12,0-16.68,0c0-25.31,0-50.59,0-75.99c5.5,0,10.94,0,16.61,0
			c0,9.26,0,18.46,0,27.67C138.85,27.84,138.99,27.86,139.13,27.88z"/>
		<path class="st0" d="M33.11,76.18c0.82-7.37,1.63-14.64,2.43-21.9c1-9.12,2-18.25,3-27.37c0.92-8.37,1.88-16.74,2.77-25.11
			C41.46,0.4,42-0.01,43.38,0c6.86,0.07,13.72,0.05,20.58,0.01c1.21-0.01,1.78,0.19,1.95,1.64c1.55,12.97,3.19,25.94,4.83,38.9
			c1.46,11.52,2.94,23.04,4.4,34.56c0.04,0.28,0,0.58,0,1.01c-5.58,0-11.13,0-16.94,0c-0.29-4.42-0.59-8.91-0.89-13.45
			c-2.03,0-3.9,0-5.94,0c-0.35,4.52-0.68,8.97-1.03,13.5C44.57,76.18,38.89,76.18,33.11,76.18z M54.35,18.44
			c-0.1,0.02-0.2,0.04-0.3,0.06c-1,10.09-2,20.18-3.01,30.41c2.14,0,3.89,0,5.72,0C55.96,38.68,55.16,28.56,54.35,18.44z"/>
		<path class="st0" d="M9.86,15.25c-3.45,0-6.6,0-9.86,0c0-5.08,0-9.99,0-15.06c12.03,0,24.04,0,36.19,0c0,4.95,0,9.9,0,15.01
			c-3.21,0-6.36,0-9.67,0c0,20.36,0,40.58,0,60.94c-5.6,0-11.03,0-16.66,0C9.86,55.96,9.86,35.75,9.86,15.25z"/>
	</g>
	<g>
		<path class="st1" d="M35.8,87.05h4.57v17.65H35.8v-3.61h1.44V90.66H35.8V87.05z M46.81,92.35h-2.55v-1.69h-3.05v-3.61h5.59V92.35z
			 M41.22,96.92v-2.55h1.57v-0.83h2.05v4.24h-2.05v-0.86H41.22z M41.22,104.7v-3.61h3.07V99.4h2.55v5.3H41.22z"/>
		<path class="st1" d="M51.42,87.05h4.11v14.04h1v3.61h-5.11v-3.61h1.44V90.66h-1.44V87.05z M56.41,87.02l3.55,8.66v7.85l-3.55-8.26
			V87.02z M64.96,90.66H63.5v14.04h-2.68V90.66h-1v-3.61h5.14V90.66z"/>
		<path class="st1" d="M69.05,87.05h4.57v17.65h-4.57v-3.61h1.44V90.66h-1.44V87.05z M80.07,92.35h-2.55v-1.69h-3.05v-3.61h5.59
			V92.35z M74.47,96.92v-2.55h1.57v-0.83h2.05v4.24h-2.05v-0.86H74.47z M74.47,104.7v-3.61h3.07V99.4h2.55v5.3H74.47z"/>
		<path class="st1" d="M90.12,90.66v-3.61h3.75l2.37,2.75v4.84l-2.18,2.54h-4.8v3.91h0.87v3.61h-5.44v-3.61h1.44V90.66h-1.44v-3.61
			h4.57v7.57h3.2l0.65-0.76v-2.44l-0.65-0.76H90.12z M91.26,98.18h3.22l1.22,2.9h1.09v3.61h-5.2v-3.61h0.89L91.26,98.18z"/>
		<path class="st1" d="M103.59,87.05h2.38v3.61h-1.18l-0.8,0.93v8.51l0.85,0.98h1.13v3.61h-2.27l-2.85-3.28V90.2L103.59,87.05z
			 M111.3,93.13h-3l-0.13-1.72l-0.65-0.76h-0.7v-3.61h2.09l2.39,2.73V93.13z M106.81,104.7v-3.61h0.43l0.91-1.06v-2.7h-1.35V95h4.48
			v9.7h-3v-1.72L106.81,104.7z"/>
		<path class="st1" d="M122.29,97.88v3.21h1.59v3.61h-6.31v-3.61h1.59v-3.81l-3.22-6.61h-1.22v-3.61h5.46v3.61h-0.89L122.29,97.88z
			 M126.75,90.66h-1.26l-2.81,5.81l-1.13-2.78l1.31-3.03h-0.91v-3.61h4.81V90.66z"/>
	</g>
</g>
</svg>
